<?xml version="1.0" encoding="UTF-8"?>
<svg id="Layer_2" data-name="Layer 2" xmlns="http://www.w3.org/2000/svg" viewBox="0 0 538.21 243.1">
  <defs>
    <style>
      .cls-1 {
        fill: #353957;
        stroke-width: 0px;
      }
    </style>
  </defs>
  <g id="Layer_1-2" data-name="Layer 1">
    <g>
      <path class="cls-1" d="M79.17,0l26.89,86.71L163.87,0h47.5l-31.92,180.96h-45.49l18.1-102.04-38.71,60.82h-32.92l-17.09-60.82-18.1,102.04H0L31.92,0h47.25Z"/>
      <g>
        <path class="cls-1" d="M184.34,222.16c.56-2.66,1.1-5.22,1.58-7.94h4.53c-.08.74-.42,2.97-.75,4.39,1.79-2.67,4.17-4.95,8.51-4.95,3.92,0,6.07,1.74,6.55,5.17,1.96-2.78,4.77-5.17,9.44-5.17s8.4,2.76,6.73,10.52l-3.88,18.36h-4.54l3.76-17.83c.72-3.29.61-6.97-3.97-6.97s-7.03,3.91-8.03,8.68l-3.43,16.13h-4.55l3.67-17.32c.94-4.39.45-7.47-3.68-7.47-4.53,0-7.34,4.16-8.38,9.19l-3.28,15.59h-4.58l4.3-20.38Z"/>
        <path class="cls-1" d="M247.52,235.52c-.49,2.37-1.18,5.88-1.32,7.02h-4.54c.09-1.03.4-2.78.73-4.35-1.42,2.27-3.82,4.91-9.59,4.91s-7.79-3.75-7.79-7.12c0-8.08,7.57-9.84,13.24-10.39,2.94-.26,5.44-.26,6.87-.32l.37-1.91c.54-2.68.34-6.11-5.08-6.11-4.76,0-6.09,2.49-6.92,4.66h-4.72c.97-4.21,4.1-8.24,12.06-8.24,6.5,0,10.69,2.94,9.27,9.73l-2.57,12.13ZM244.42,228.71c-1.52.04-3.41.06-5.81.3-4.58.49-8.7,1.73-8.7,6.28,0,2.14,1.44,3.96,4.56,3.96,6.18,0,8.61-4.82,9.84-10.09l.11-.45Z"/>
        <path class="cls-1" d="M258.96,221.42c.5-2.46.99-4.84,1.42-7.19h4.53c-.09.89-.66,4.07-.86,4.83,1.61-2.57,4.34-5.39,9.52-5.39s8.78,3.12,7.04,11.17l-3.72,17.71h-4.6l3.69-17.57c.92-4.28-.04-7.21-4.35-7.21-5.26,0-8.27,4.83-9.5,10.62l-3,14.16h-4.62l4.47-21.13Z"/>
        <path class="cls-1" d="M287.31,214.22h4.69l1.75-8.18h4.6l-1.73,8.18h6.03l-.86,3.8h-6.03l-3.59,17.14c-.55,2.59-.42,3.84,2.03,3.84.82,0,1.92-.06,2.8-.24l-.83,3.65c-1.32.45-2.7.49-3.94.49-4.46,0-5.87-2.16-4.88-6.86l3.79-18.01h-4.69l.85-3.8Z"/>
        <path class="cls-1" d="M307.24,229.08c-.15,1.12-.24,1.74-.24,2.7,0,4.77,2.26,7.47,6.25,7.47s6.02-2.3,7.31-4.68h4.81c-1.85,4.39-5.31,8.54-12.65,8.54s-10.4-4.7-10.4-11.25c0-7.97,4.35-18.19,14.81-18.19,7.59,0,10.12,4.96,10.12,10.11,0,1.77-.19,3.41-.71,5.3h-19.31ZM322.6,225.57c.15-.72.18-1.42.18-2.05,0-3.86-1.82-6.09-5.9-6.09-4.3,0-7.43,2.97-8.86,8.14h14.58Z"/>
        <path class="cls-1" d="M334.96,221.42c.5-2.46.99-4.84,1.42-7.19h4.53c-.09.89-.66,4.07-.86,4.83,1.61-2.57,4.34-5.39,9.52-5.39s8.78,3.12,7.04,11.17l-3.72,17.71h-4.6l3.69-17.57c.92-4.28-.04-7.21-4.35-7.21-5.26,0-8.27,4.83-9.5,10.62l-3,14.16h-4.62l4.47-21.13Z"/>
        <path class="cls-1" d="M367.26,214.22h4.62l-6,28.32h-4.62l6-28.32ZM369.94,201.54h4.62l-1.28,6.11h-4.62l1.27-6.11Z"/>
        <path class="cls-1" d="M378.53,222.16c.56-2.66,1.1-5.22,1.58-7.94h4.53c-.08.74-.42,2.97-.76,4.39,1.79-2.67,4.17-4.95,8.51-4.95,3.92,0,6.07,1.74,6.55,5.17,1.96-2.78,4.77-5.17,9.44-5.17s8.4,2.76,6.73,10.52l-3.88,18.36h-4.54l3.76-17.83c.72-3.29.61-6.97-3.97-6.97s-7.03,3.91-8.03,8.68l-3.43,16.13h-4.55l3.67-17.32c.94-4.39.45-7.47-3.68-7.47-4.53,0-7.34,4.16-8.38,9.19l-3.28,15.59h-4.58l4.3-20.38Z"/>
        <path class="cls-1" d="M425.68,214.22h4.62l-6,28.32h-4.62l6-28.32ZM428.35,201.54h4.62l-1.27,6.11h-4.62l1.27-6.11Z"/>
        <path class="cls-1" d="M438.37,229.08c-.15,1.12-.24,1.74-.24,2.7,0,4.77,2.26,7.47,6.25,7.47s6.02-2.3,7.31-4.68h4.81c-1.85,4.39-5.31,8.54-12.65,8.54s-10.4-4.7-10.4-11.25c0-7.97,4.35-18.19,14.81-18.19,7.59,0,10.12,4.96,10.12,10.11,0,1.77-.19,3.41-.71,5.3h-19.31ZM453.72,225.57c.15-.72.18-1.42.18-2.05,0-3.86-1.82-6.09-5.9-6.09-4.3,0-7.43,2.97-8.86,8.14h14.58Z"/>
        <path class="cls-1" d="M466.09,221.42c.5-2.46.99-4.84,1.42-7.19h4.53c-.09.89-.66,4.07-.86,4.83,1.61-2.57,4.34-5.39,9.52-5.39s8.78,3.12,7.04,11.17l-3.72,17.71h-4.6l3.69-17.57c.92-4.28-.04-7.21-4.35-7.21-5.26,0-8.27,4.83-9.5,10.62l-3,14.16h-4.62l4.47-21.13Z"/>
        <path class="cls-1" d="M494.45,214.22h4.69l1.75-8.18h4.6l-1.73,8.18h6.03l-.86,3.8h-6.03l-3.59,17.14c-.55,2.59-.42,3.84,2.03,3.84.82,0,1.92-.06,2.8-.24l-.83,3.65c-1.32.45-2.7.49-3.94.49-4.46,0-5.87-2.16-4.88-6.86l3.79-18.01h-4.69l.85-3.8Z"/>
        <path class="cls-1" d="M535.27,225.37c0,7.48-4.23,17.74-15.1,17.74-6.84,0-10.64-4.34-10.64-11.41,0-7.83,4.79-18.02,15-18.02,6.46,0,10.74,4.18,10.74,11.7ZM514.31,231.67c0,4.72,2.25,7.55,6.37,7.55,6.8,0,9.8-8.08,9.8-14.03,0-4.78-2.07-7.65-6.38-7.65-6.56,0-9.79,8.06-9.79,14.13Z"/>
      </g>
      <g>
        <path class="cls-1" d="M323.58,0c21.95,0,37.61,5.53,47,16.59,6.87,8.38,10.3,18.85,10.3,31.42,0,4.52-.42,9.3-1.26,14.33l-9.8,56.05c-3.35,18.94-11.56,34.1-24.63,45.49-13.07,11.4-30,17.09-50.77,17.09h-73.14L253.21,0h70.37ZM307.75,39.21h-16.34l-17.84,102.54h23.88c7.87,0,14.03-2.14,18.47-6.41,4.44-4.27,7.5-11.27,9.17-20.99l7.29-41.22c.67-3.68,1.01-7.04,1.01-10.05,0-15.92-8.55-23.88-25.64-23.88Z"/>
        <polygon class="cls-1" points="292.18 21.09 221.29 21.09 225.01 0 292.18 0 292.18 21.09"/>
      </g>
      <g>
        <path class="cls-1" d="M488.45,0c19.1,0,32.67,4.19,40.72,12.57,6.03,6.37,9.05,14.41,9.05,24.13,0,3.35-.34,6.87-1,10.56l-3.52,19.6c-2.01,10.89-5.49,19.69-10.43,26.39-4.94,6.7-10.43,11.48-16.46,14.33l22.87,73.39h-50.77l-21.11-67.61h-15.58l-10.3,67.61h-48.26L415.56,0h72.89ZM472.61,39.21h-18.85l-6.53,43.73h17.59c8.88,0,15.25-2.14,19.1-6.41,3.85-4.27,5.78-9.93,5.78-16.96,0-13.57-5.7-20.36-17.09-20.36Z"/>
        <polygon class="cls-1" points="460.93 21.09 390.04 21.09 393.76 0 460.93 0 460.93 21.09"/>
      </g>
    </g>
  </g>
</svg>